<?xml version="1.0" standalone="no"?>
<!DOCTYPE svg PUBLIC "-//W3C//DTD SVG 20010904//EN"
 "http://www.w3.org/TR/2001/REC-SVG-20010904/DTD/svg10.dtd">
<svg version="1.0" xmlns="http://www.w3.org/2000/svg"
 width="256.000000pt" height="256.000000pt" viewBox="0 0 256.000000 256.000000"
 preserveAspectRatio="xMidYMid meet">
<metadata>
Created by potrace 1.14, written by Peter Selinger 2001-2017
</metadata>
<g transform="translate(0.000000,256.000000) scale(0.100000,-0.100000)"
fill="#000000" stroke="none">
<path d="M319 2455 c-294 -94 -320 -503 -40 -634 47 -22 70 -26 146 -26 76 0
99 4 146 26 72 34 134 96 168 168 38 81 38 201 0 282 -56 119 -164 190 -299
196 -47 2 -92 -3 -121 -12z m243 -24 c66 -28 133 -93 165 -160 23 -47 27 -69
27 -141 0 -72 -4 -94 -27 -141 -32 -67 -98 -131 -165 -161 -37 -17 -67 -22
-137 -22 -70 0 -100 5 -137 22 -67 30 -133 94 -165 161 -23 47 -27 69 -27 141
0 72 4 94 27 141 43 89 122 153 222 180 49 13 166 3 217 -20z"/>
<path d="M1169 2455 c-294 -94 -320 -503 -40 -634 47 -22 70 -26 141 -26 102
0 173 28 240 95 67 67 95 138 95 240 0 102 -28 173 -95 240 -84 84 -230 121
-341 85z m248 -35 c113 -56 177 -160 178 -290 0 -66 -5 -85 -33 -142 -58 -118
-161 -182 -292 -182 -131 0 -234 64 -292 182 -28 57 -33 76 -33 142 1 154 94
274 244 317 68 19 155 9 228 -27z"/>
<path d="M2009 2455 c-294 -94 -320 -503 -40 -634 47 -22 70 -26 146 -26 76 0
99 4 146 26 72 34 134 96 168 168 22 47 26 70 26 141 0 102 -28 173 -95 240
-85 85 -237 122 -351 85z m258 -35 c113 -56 177 -160 178 -290 0 -66 -5 -85
-33 -142 -59 -120 -160 -182 -297 -182 -137 0 -238 62 -297 182 -28 57 -33 76
-33 142 1 154 94 274 244 317 70 20 164 9 238 -27z"/>
<path d="M323 1616 c-89 -29 -176 -107 -216 -194 -31 -67 -31 -207 0 -274 30
-66 105 -143 172 -175 49 -24 68 -28 146 -28 78 0 97 4 146 28 67 32 142 109
172 175 31 67 31 207 0 274 -30 66 -105 143 -170 175 -66 32 -183 41 -250 19z
m251 -35 c74 -36 118 -82 155 -161 21 -45 26 -70 26 -135 0 -71 -4 -89 -33
-147 -59 -120 -161 -183 -297 -183 -91 0 -162 26 -228 84 -84 74 -125 223 -93
333 60 206 278 304 470 209z"/>
<path d="M1169 1615 c-295 -95 -321 -512 -40 -644 47 -22 70 -26 141 -26 71 0
94 4 141 26 72 34 134 96 168 168 22 47 26 70 26 146 0 76 -4 99 -26 146 -55
117 -164 190 -293 196 -44 2 -89 -3 -117 -12z m233 -24 c66 -28 132 -93 165
-160 24 -48 27 -68 27 -146 0 -78 -3 -98 -27 -146 -32 -67 -98 -131 -165 -161
-66 -30 -198 -30 -264 0 -67 30 -133 94 -165 161 -24 48 -27 68 -27 146 0 78
3 98 27 146 43 89 122 153 222 180 47 13 155 2 207 -20z"/>
<path d="M2016 1614 c-114 -35 -196 -119 -230 -234 -54 -182 49 -369 234 -424
182 -54 369 49 424 234 20 68 20 122 0 190 -55 185 -246 290 -428 234z m229
-33 c62 -28 130 -94 162 -160 36 -73 39 -190 6 -263 -30 -66 -95 -133 -162
-165 -47 -23 -69 -28 -136 -28 -67 0 -89 5 -136 28 -67 32 -132 99 -162 165
-29 65 -30 188 0 253 40 89 122 160 213 186 58 17 158 9 215 -16z"/>
<path d="M323 766 c-89 -29 -176 -107 -216 -194 -31 -67 -31 -207 0 -274 30
-66 105 -143 172 -175 49 -24 68 -28 146 -28 78 0 97 4 146 28 67 32 142 109
172 175 31 67 31 207 0 274 -30 66 -105 143 -170 175 -66 32 -183 41 -250 19z
m242 -30 c68 -31 130 -93 163 -165 38 -80 38 -192 0 -272 -33 -72 -95 -134
-167 -167 -80 -38 -192 -38 -272 0 -72 33 -134 95 -167 167 -38 80 -38 192 0
272 78 169 274 242 443 165z"/>
<path d="M1169 765 c-295 -95 -321 -512 -40 -644 47 -22 70 -26 141 -26 71 0
94 4 141 26 72 34 134 96 168 168 22 47 26 70 26 146 0 76 -4 99 -26 146 -55
117 -164 190 -293 196 -44 2 -89 -3 -117 -12z m248 -35 c115 -57 177 -160 178
-295 0 -71 -4 -88 -33 -147 -58 -118 -160 -182 -292 -182 -132 0 -234 64 -292
182 -29 59 -33 76 -33 147 1 88 26 159 79 223 91 107 258 138 393 72z"/>
<path d="M2013 766 c-89 -29 -176 -107 -216 -194 -31 -67 -31 -207 0 -274 30
-66 105 -143 172 -175 49 -24 68 -28 146 -28 78 0 97 4 146 28 67 32 142 109
172 175 31 67 31 207 0 274 -30 66 -105 143 -170 175 -66 32 -183 41 -250 19z
m251 -35 c74 -36 118 -82 155 -161 21 -45 26 -70 26 -135 0 -71 -4 -89 -33
-147 -59 -120 -161 -183 -297 -183 -91 0 -162 26 -228 84 -84 74 -125 223 -93
333 60 206 278 304 470 209z"/>
</g>
</svg>
